<svg width="19" height="23" viewBox="0 0 19 23" fill="none" xmlns="http://www.w3.org/2000/svg">
<g opacity="0.3" clip-path="url(#clip0_67_4242)">
<path d="M9.73158 0C10.0578 0.076412 10.3959 0.129313 10.7162 0.235114C12.561 0.864043 13.7295 2.39816 13.8541 4.33197C13.8541 4.36724 13.866 4.4025 13.8719 4.47304C13.9549 4.47304 14.038 4.47304 14.1151 4.47304C14.8981 4.47304 15.687 4.47304 16.47 4.47304C16.9564 4.47304 17.1936 4.68464 17.2411 5.16075C17.4013 6.9241 17.5555 8.69333 17.7097 10.4567C17.8995 12.5551 18.0893 14.6593 18.2791 16.7577C18.3741 17.7864 18.4986 18.815 18.5461 19.8436C18.5935 20.9016 18.0893 21.7128 17.2411 22.3182C16.5708 22.7943 15.8056 22.9882 14.9811 22.9882C12.0153 22.9824 9.04351 22.9882 6.07766 22.9882C5.14639 22.9882 4.22105 23.0176 3.28977 22.9765C2.1153 22.9295 1.14843 22.4475 0.466287 21.4718C-0.00231658 20.8017 -0.0497701 20.0493 0.0332736 19.2617C0.205293 17.6335 0.33579 15.9995 0.47815 14.3654C0.620511 12.7608 0.768803 11.162 0.911163 9.55737C1.04166 8.13494 1.16623 6.7125 1.29079 5.29006C1.29672 5.2254 1.29672 5.15487 1.30859 5.09021C1.3679 4.67876 1.59924 4.47304 2.02632 4.46716C2.82117 4.46128 3.61008 4.46716 4.40493 4.46716C4.4939 4.46716 4.58288 4.46716 4.67779 4.46716C4.71338 3.7677 4.8498 3.12113 5.16418 2.52159C5.91158 1.12855 7.06826 0.305648 8.63422 0.0470227C8.69947 0.0352671 8.76472 0.0176335 8.82997 0C9.12655 0 9.42907 0 9.73158 0ZM4.69558 5.76029C3.96598 5.76029 3.26604 5.76029 2.55424 5.76029C2.54831 5.80731 2.53645 5.84258 2.53645 5.88372C2.3585 7.89394 2.17461 9.91004 1.99666 11.9203C1.76533 14.5418 1.53399 17.1692 1.29672 19.7907C1.2552 20.2727 1.41536 20.6724 1.73567 21.0192C2.23393 21.5482 2.87455 21.7304 3.58042 21.7304C7.3767 21.7363 11.1789 21.7363 14.9752 21.7304C15.4023 21.7304 15.8116 21.6599 16.2031 21.4718C16.8259 21.172 17.3716 20.5313 17.2648 19.7084C17.1996 19.2147 17.1699 18.7092 17.1284 18.2096C16.9742 16.4462 16.814 14.677 16.6598 12.9136C16.4818 10.9269 16.3039 8.93432 16.1259 6.94761C16.0904 6.55379 16.0488 6.15998 16.0132 5.77204C15.2896 5.77204 14.5837 5.77204 13.866 5.77204C13.866 5.85433 13.866 5.92487 13.866 5.98952C13.866 6.55967 13.8719 7.12982 13.86 7.6941C13.8541 8.05264 13.5694 8.31715 13.2194 8.31127C12.8813 8.30539 12.6085 8.04677 12.5907 7.69997C12.5847 7.58242 12.5907 7.45898 12.5907 7.34143C12.5907 6.8183 12.5907 6.29517 12.5907 5.77204C10.3722 5.77204 8.18341 5.77204 5.97682 5.77204C5.97682 5.83082 5.97682 5.87784 5.97682 5.91899C5.97682 6.50089 5.98276 7.08868 5.97682 7.67059C5.97089 8.04677 5.6921 8.31715 5.3362 8.31127C4.98623 8.31127 4.71931 8.04089 4.70744 7.68234C4.70151 7.57066 4.70744 7.45898 4.70744 7.3473C4.69558 6.8183 4.69558 6.29517 4.69558 5.76029ZM12.5847 4.46128C12.5017 3.23281 11.9619 2.29236 10.8942 1.6987C9.73751 1.05801 8.56897 1.10503 7.45975 1.82213C6.51661 2.43343 6.03614 3.33274 5.97682 4.46128C8.18934 4.46128 10.3781 4.46128 12.5847 4.46128Z" fill="white"/>
</g>
<defs>
<clipPath id="clip0_67_4242">
<rect width="18.5484" height="23" fill="white"/>
</clipPath>
</defs>
</svg>
