<svg width="16" height="16" viewBox="0 0 16 16" fill="none" xmlns="http://www.w3.org/2000/svg">
<path fill-rule="evenodd" clip-rule="evenodd" d="M3.33833 2.55929C3.12376 2.34682 2.77588 2.34682 2.56131 2.55929C2.34675 2.77176 2.34675 3.11624 2.56131 3.32872L7.27873 8.00007L2.56143 12.6713C2.34687 12.8838 2.34687 13.2283 2.56143 13.4407C2.776 13.6532 3.12388 13.6532 3.33844 13.4407L8.05575 8.7695L12.6625 13.3312C12.877 13.5437 13.2249 13.5437 13.4395 13.3312C13.654 13.1188 13.654 12.7743 13.4395 12.5618L8.83276 8.00007L13.4396 3.43823C13.6542 3.22576 13.6542 2.88127 13.4396 2.6688C13.225 2.45633 12.8771 2.45633 12.6626 2.6688L8.05575 7.23065L3.33833 2.55929Z" fill="#828282"/>
</svg>
